
<svg version="1.1" style="fill: #ffffff;" id="Layer_1" xmlns="http://www.w3.org/2000/svg" width="24" height="24"
	 viewBox="0 0 24 24" >
<path class="st0" d="M18.6,21.9c-0.4,0.5-1,1-1.6,1.3c-0.6,0.3-1.1,0.4-1.7,0.4c-0.5,0-1,0-1.5-0.2c-1-0.4-1.6-1.1-1.9-2
	c-0.2-0.6-0.3-1.3-0.3-2c0-0.6,0-1.2,0.1-1.8c0.2-0.9,0.4-1.8,0.7-2.6c0-0.1,0.1-0.1,0.2-0.1c0.4,0,0.9,0,1.3,0c0.1,0,0.1,0,0.1,0.1
	c-0.3,0.9-0.5,1.8-0.6,2.7c-0.1,0.6-0.1,1.2-0.1,1.8c0.1,0.6,0.2,1.2,0.6,1.7c0.4,0.4,0.8,0.6,1.4,0.5c0.5-0.1,1-0.2,1.4-0.5
	c0.3-0.2,0.5-0.5,0.7-0.8c0.6-0.7,0.8-1.5,1.1-2.3c0.2-0.6,0.3-1.2,0.3-1.8c0-0.4,0.1-0.8,0.1-1.2c0-0.1,0-0.1,0.1-0.1
	c0.4,0,0.9,0,1.3,0c0.1,0,0.1,0,0.1,0.1c0,0.5,0,0.9,0,1.4c-0.1,1.5-0.3,2.9-0.9,4.2c-0.1,0.1,0,0.2,0,0.3c0.5,0.7,0.9,1.4,1.1,2.2
	c0.1,0.3,0.1,0.6,0.1,1c0,0,0,0.1,0,0.1c0,0-0.1,0-0.1-0.1C20,23.2,19.3,22.5,18.6,21.9z M10.2,6.9c0,0,0,0.1,0,0.1
	c-0.4,1.3-0.7,2.7-0.9,4c0,0.1,0,0.1,0.1,0.1c0.5,0,1,0,1.5,0c0.1,0,0.1,0,0.1-0.1c0-0.3,0-0.5,0.1-0.8c0.2-1.8,0.7-3.5,1.5-5.2
	c0.6-1.4,1.5-2.7,2.4-3.9c0.3-0.4,0.5-0.7,0.8-1.1C15.6,0,15.5,0,15.4,0c-0.5,0.1-1,0.3-1.5,0.6c-0.8,0.5-1.5,1.2-2.1,2
	c-1,1.3-1.8,2.7-2.5,4.2C8.7,8.2,8.1,9.5,7.7,11c0,0.1,0,0.1,0.1,0.1c0.2,0,0.4,0,0.6,0c0.1,0,0.2,0,0.2-0.1C9,9.8,9.4,8.7,9.9,7.6
	C10,7.3,10.1,7.1,10.2,6.9C10.2,6.9,10.2,6.9,10.2,6.9z M6.3,7.6C6.3,7.6,6.3,7.7,6.3,7.6c0,0.1,0,0.1,0,0.2C5.9,8.9,5.7,9.9,5.5,11
	c0,0.1,0,0.1,0.1,0.1c0.5,0,1,0,1.5,0c0.1,0,0.1,0,0.1-0.1c0.1-0.4,0.1-0.9,0.2-1.3c0.4-1.8,1-3.5,1.9-5.2c0.7-1.2,1.5-2.3,2.3-3.5
	c0.1-0.1,0.2-0.2,0.1-0.2c-0.1-0.1-0.2,0-0.3,0C10.7,1,10.1,1.3,9.6,1.7C8.7,2.4,7.9,3.3,7.3,4.3C6,6.1,5,8.1,4.3,10.2
	c-0.1,0.3-0.2,0.6-0.3,0.9c0.3,0,0.6,0,0.8,0c0.1,0,0.1,0,0.1-0.1c0.2-0.5,0.3-1,0.5-1.5C5.7,8.9,6,8.2,6.3,7.6
	C6.3,7.6,6.3,7.6,6.3,7.6z M13,11.1c0.5,0,1,0,1.5,0c0.1,0,0.1,0,0.2-0.1c0.4-0.3,0.8-0.4,1.3-0.6c0.8-0.2,1.4-0.1,1.9,0.6
	c0,0.1,0.1,0.1,0.2,0.1c0.3,0,0.6,0,0.9,0c0.2,0,0.3,0,0.5,0c0,0,0-0.1,0-0.1c-0.3-0.6-0.7-1-1.3-1.4c-0.7-0.5-1.5-0.5-2.4-0.3
	c-0.7,0.2-1.4,0.7-2.1,1.1C13.5,10.7,13.2,10.9,13,11.1C13,11.1,13,11.1,13,11.1z M13.7,11.7c-0.4,0-0.8,0-1.2,0
	c-0.2,0-0.3,0-0.4,0.2c-0.1,0.1-0.3,0.3-0.5,0.3c-0.4,0.1-0.6-0.1-0.6-0.4c0-0.1,0-0.1-0.1-0.1c-0.5,0-1,0-1.5,0
	c-0.1,0-0.1,0-0.1,0.1c0,0.4,0,0.8,0,1.2c0,0.1,0,0.1,0.1,0.1c1.1,0,2.2,0,3.3,0c0.1,0,0.1,0,0.1-0.1c0.4-0.5,0.7-1,1.1-1.4
	C13.8,11.7,13.8,11.7,13.7,11.7z M7.1,13.5c0-0.1,0-0.1-0.1-0.1c-0.5,0-1.1,0-1.6,0c-0.1,0-0.1,0-0.1,0.1c0,0.3,0,0.6,0.1,0.9
	c0,0.1,0,0.1,0.1,0.1c0.8,0,1.6,0,2.3,0c0.1,0,0.1,0,0.1-0.1C8,14.1,8,13.8,8.1,13.5c0-0.1,0-0.1-0.1-0.1c-0.1,0-0.3,0-0.4,0
	c-0.1,0-0.2,0-0.3,0c-0.1,0,0,0.2-0.1,0.3c0,0,0,0,0,0C7.2,13.7,7.1,13.6,7.1,13.5z M9.4,13.4c-0.1,0-0.1,0-0.1,0.1
	c0.1,0.3,0.1,0.6,0.3,0.8c0,0.1,0.1,0.1,0.2,0.1c0.5,0,1,0,1.5,0c0.2,0,0.3,0,0.4-0.2c0.3-0.3,0.5-0.6,0.8-0.9
	C11.4,13.4,10.4,13.4,9.4,13.4z M7,13.1c0.1,0,0.1,0,0.1-0.1c0-0.4,0-0.8,0-1.2c0-0.1,0-0.1-0.1-0.1c-0.5,0-1,0-1.5,0
	c-0.1,0-0.1,0-0.1,0.1c0,0.4-0.1,0.8-0.1,1.2c0,0.1,0,0.1,0.1,0.1c0.3,0,0.5,0,0.8,0C6.4,13.1,6.7,13.1,7,13.1z M14.5,11.7
	c-0.1,0-0.1,0-0.2,0.1c-0.2,0.2-0.4,0.5-0.6,0.8c-0.1,0.2-0.3,0.4-0.4,0.6c0.4,0,0.8,0,1.1,0c0.3,0,0.4-0.1,0.5-0.3
	c0-0.1,0.1-0.1,0.1-0.2c0.2-0.4,0.5-0.7,0.8-1C15.4,11.7,15,11.7,14.5,11.7z M19.5,13.1c0.2,0,0.4,0,0.6,0c0.1,0,0.1,0,0.1-0.1
	c-0.1-0.4-0.2-0.8-0.4-1.3c0-0.1-0.1-0.1-0.1-0.1c-0.4,0-0.8,0-1.2,0c-0.1,0-0.1,0-0.1,0.1c0.2,0.4,0.3,0.8,0.4,1.2
	c0,0.1,0,0.1,0.1,0.1C19.1,13.1,19.3,13.1,19.5,13.1C19.5,13.1,19.5,13.1,19.5,13.1z M5.6,14.7C5.5,14.7,5.5,14.7,5.6,14.7
	c0.1,0.5,0.3,0.9,0.8,1c0.5,0.1,0.9-0.1,1.4-0.3c0.1,0,0.1-0.1,0.1-0.1c0-0.2,0-0.3,0-0.5c0-0.1,0-0.1-0.1-0.1c-0.4,0-0.7,0-1.1,0
	C6.3,14.7,5.9,14.7,5.6,14.7z M13.3,13.4c0,0-0.1,0-0.1,0.1c-0.2,0.3-0.3,0.6-0.5,1c0.5,0,1,0,1.5,0c0.1,0,0.1,0,0.1-0.1
	c0.1-0.3,0.3-0.6,0.4-1C14.2,13.4,13.8,13.4,13.3,13.4z M19.7,14.5c0.1,0,0.1,0,0.2,0c0.1,0,0.2,0,0.2,0c0.1,0,0.2,0,0.3,0
	c0.1-0.1,0-0.2,0-0.3c0-0.2-0.1-0.5-0.1-0.7c0-0.1,0-0.1-0.1-0.1c-0.4,0-0.9,0-1.3,0c-0.1,0-0.1,0-0.1,0.1c0,0.3,0.1,0.6,0.1,0.9
	c0,0.1,0,0.1,0.1,0.1C19.3,14.5,19.5,14.5,19.7,14.5C19.7,14.5,19.7,14.5,19.7,14.5z M3.9,11.7C3.8,11.7,3.8,11.7,3.9,11.7
	c-0.2,0.5-0.3,0.9-0.4,1.3c0,0.1,0,0.1,0.1,0.1c0.2,0,0.3,0,0.5,0c0.3,0,0.3,0,0.4-0.3c0.1-0.4,0.2-0.7,0.3-1.1
	C4.4,11.7,4.2,11.7,3.9,11.7z M8.1,13.1c0.1,0,0.1,0,0.1-0.1c0.1-0.4,0.2-0.8,0.3-1.2c0-0.1,0-0.1-0.1-0.1c-0.2,0-0.5,0-0.7,0
	c-0.1,0-0.1,0-0.1,0.1c-0.1,0.4-0.1,0.8-0.2,1.2c0,0.1,0,0.2,0.1,0.2c0.1,0,0.2,0,0.3,0C7.8,13.1,7.9,13.1,8.1,13.1z M3.3,15.2
	c0,0.1,0,0.2,0,0.4c0,0.2,0.1,0.5,0.2,0.7c0,0,0,0.1,0.1,0.1C3.7,16.2,3.9,16.1,4,16c0.1,0,0.1-0.1,0.1-0.2c0-0.3,0-0.7,0-1
	c0-0.1,0-0.1-0.1-0.1c-0.2,0-0.4,0-0.6,0c-0.1,0-0.1,0-0.1,0.1C3.3,15,3.3,15.1,3.3,15.2C3.3,15.2,3.3,15.2,3.3,15.2z M4,14.5
	c0.1,0,0.1,0,0.1-0.1c0-0.3,0.1-0.6,0.1-0.8c0-0.1,0-0.1-0.1-0.1c-0.2,0-0.5,0-0.7,0c-0.1,0-0.1,0-0.1,0.1c0,0.3-0.1,0.6-0.1,0.8
	c0,0.1,0,0.1,0.1,0.1c0.1,0,0.2,0,0.3,0C3.8,14.5,3.9,14.5,4,14.5z M17.3,11.1c-0.6-0.6-1.4-0.6-2.2,0
	C15.9,11.1,16.6,11.1,17.3,11.1z M11.1,14.7c-0.4,0-0.7,0-1.1,0C10.3,15,10.9,15,11.1,14.7z"/>
</svg>
